<svg xmlns:xlink="http://www.w3.org/1999/xlink" xmlns="http://www.w3.org/2000/svg" aria-hidden="true" width="21" height="36" viewBox="0 0 21 36"><path d="M15.7776 18.0599L1.65242 32.0019C0.980724 32.6649 0.980722 33.7398 1.65242 34.4028C2.32412 35.0658 3.41316 35.0658 4.08486 34.4028L19.2876 19.3973C19.6588 19.0309 19.8248 18.5388 19.7858 18.0599C19.8248 17.581 19.6588 17.0889 19.2876 16.7226L4.08476 1.71697C3.41306 1.05398 2.32401 1.05398 1.65231 1.71697C0.980602 2.37996 0.980602 3.45488 1.65231 4.11787L15.7776 18.0599Z" fill="#172B4D"></path><path d="M15.7776 18.0599L16.4801 17.3482L17.2012 18.0599L16.4801 18.7717L15.7776 18.0599ZM1.65242 32.0019L0.949947 31.2902L1.65242 32.0019ZM1.65242 34.4028L2.3549 33.6911H2.3549L1.65242 34.4028ZM4.08486 34.4028L3.38238 33.6911H3.38239L4.08486 34.4028ZM19.2876 19.3973L19.9901 20.109L19.9901 20.109L19.2876 19.3973ZM19.7858 18.0599L18.7891 18.1411L18.7825 18.0599L18.7891 17.9787L19.7858 18.0599ZM19.2876 16.7226L18.5851 17.4343H18.5851L19.2876 16.7226ZM4.08476 1.71697L4.78724 1.00526L4.78724 1.00526L4.08476 1.71697ZM1.65231 1.71697L0.949829 1.00526L0.949831 1.00526L1.65231 1.71697ZM1.65231 4.11787L0.949831 4.82957L0.949829 4.82957L1.65231 4.11787ZM16.4801 18.7717L2.3549 32.7137L0.949947 31.2902L15.0752 17.3482L16.4801 18.7717ZM2.3549 32.7136C2.0799 32.9851 2.0799 33.4197 2.3549 33.6911L0.949945 35.1145C-0.118454 34.06 -0.118448 32.3448 0.949947 31.2902L2.3549 32.7136ZM2.3549 33.6911C2.63716 33.9697 3.10013 33.9697 3.38238 33.6911L4.78734 35.1145C3.7262 36.1619 2.01109 36.1619 0.949944 35.1145L2.3549 33.6911ZM3.38239 33.6911L18.5851 18.6856L19.9901 20.109L4.78734 35.1145L3.38239 33.6911ZM18.5851 18.6856C18.7385 18.5342 18.805 18.3356 18.7891 18.1411L20.7825 17.9787C20.8447 18.742 20.5791 19.5276 19.9901 20.109L18.5851 18.6856ZM18.7891 17.9787C18.805 17.7843 18.7385 17.5856 18.5851 17.4343L19.9901 16.0109C20.579 16.5922 20.8447 17.3778 20.7825 18.1411L18.7891 17.9787ZM18.5851 17.4343L3.38229 2.42868L4.78724 1.00526L19.9901 16.0109L18.5851 17.4343ZM3.38229 2.42868C3.10002 2.15008 2.63704 2.15008 2.35478 2.42868L0.949831 1.00526C2.01098 -0.04212 3.72609 -0.0421157 4.78724 1.00526L3.38229 2.42868ZM2.35478 2.42868C2.07978 2.70011 2.07978 3.13472 2.35478 3.40616L0.949829 4.82957C-0.118572 3.77503 -0.118572 2.0598 0.949829 1.00526L2.35478 2.42868ZM2.35478 3.40616L16.4801 17.3482L15.0752 18.7717L0.949831 4.82957L2.35478 3.40616Z" fill="#172B4D"></path></svg>