<svg xmlns:xlink="http://www.w3.org/1999/xlink" xmlns="http://www.w3.org/2000/svg" height="16" viewBox="0 0 16 16" width="16"><g><path d="m3.36409209 14.2159091h-3.17642414v-9.59186348h3.17642414z" fill="#FFFFFF"></path><path d="m1.77597952 3.31427557h-.0206972c-1.06590614 0-1.75528232-.7364835-1.75528232-1.65693805 0-.94122869.71047144-1.65733752 1.79707473-1.65733752 1.08660338 0 1.75528236.71610883 1.77597957 1.65733752 0 .92045455-.68937619 1.65693805-1.79707478 1.65693805z" fill="#FFFFFF"></path><path d="m14.8176077 14.2159091h-3.1760261v-5.13141424c0-1.28959517-.4599158-2.16910068-1.6092078-2.16910068-.87744213 0-1.40004662.59326174-1.62970603 1.16594902-.08398287.20494499-.10448108.4913885-.10448108.7780318v5.3565341h-3.17622514s.04159346-8.69198329 0-9.59186348h3.17622514v1.35810992c.42210364-.65358665 1.17735263-1.58322973 2.86258281-1.58322973 2.0898209 0 3.6568382 1.37089396 3.6568382 4.31702764z" fill="#FFFFFF"></path></g></svg>