<svg xmlns:xlink="http://www.w3.org/1999/xlink" xmlns="http://www.w3.org/2000/svg" height="16" viewBox="0 0 8 16" width="8"><path d="m1.61157724 7.96343677v7.63998533c0 .1097869.08892957.199047.19830983.199047h2.82684468c.10938027 0 .19799997-.0892601.19799997-.199047v-7.76438973h2.04940817c.10287322 0 .1887042-.07930781.19738025-.18225245l.1970704-2.33942478c.00991549-.1160071-.08118309-.21584163-.19738026-.21584163h-2.24647856v-1.65986573c0-.38876376.31419714-.70412892.70183089-.70412892h1.57935189c.10969013 0 .19830983-.08926016.19830983-.19904704v-2.33942478c0-.11009789-.0886197-.19904704-.19830983-.19904704h-2.66850667c-1.56602795 0-2.83583059 1.27421209-2.83583059 2.8460617v2.25545181h-1.41326741c-.10938026 0-.19830983.08926015-.19830983.19904704v2.33942477c0 .10978689.08892957.19904705.19830983.19904705h1.41326741z" fill="#FFFFFF"></path></svg>