<svg xmlns:xlink="http://www.w3.org/1999/xlink" xmlns="http://www.w3.org/2000/svg" fill="currentColor" height="64" aria-hidden="true" viewBox="0 0 64 64" width="64"><path clip-rule="evenodd" d="M31.8115 38.0924C31.393 37.0057 29.8555 37.0057 29.4369 38.0924L27.8317 42.2604L23.6637 43.8656C22.577 44.2842 22.577 45.8217 23.6637 46.2402L27.8317 47.8454L29.4369 52.0135C29.8555 53.1002 31.393 53.1002 31.8115 52.0135L33.4167 47.8454L37.5848 46.2402C38.6715 45.8217 38.6715 44.2842 37.5848 43.8656L33.4167 42.2604L31.8115 38.0924Z" fill-rule="evenodd" opacity="0.5" fill="#7A869A"></path><path clip-rule="evenodd" d="M32 0C49.6731 0 64 14.3269 64 32C64 49.6731 49.6731 64 32 64C14.3269 64 0 49.6731 0 32C0 14.3269 14.3269 0 32 0ZM46.6329 24.4498C46.2144 23.3631 44.6769 23.3631 44.2584 24.4498L42.6531 28.6178L38.4851 30.223C37.3984 30.6416 37.3984 32.1791 38.4851 32.5976L42.6531 34.2028L44.2584 38.3709C44.6769 39.4576 46.2144 39.4576 46.6329 38.3709L48.2381 34.2028L52.4062 32.5976C53.4929 32.1791 53.4929 30.6416 52.4062 30.223L48.2381 28.6178L46.6329 24.4498ZM31.8119 38.0919C31.3934 37.0052 29.8558 37.0052 29.4373 38.0919L27.8321 42.26L23.6641 43.8652C22.5773 44.2837 22.5773 45.8213 23.6641 46.2398L27.8321 47.845L29.4373 52.013C29.8558 53.0998 31.3934 53.0998 31.8119 52.013L33.4171 47.845L37.5851 46.2398C38.6719 45.8213 38.6719 44.2837 37.5851 43.8652L33.4171 42.26L31.8119 38.0919ZM22.7155 13.3671C23.2177 12.0631 25.0627 12.0631 25.565 13.3671L27.5398 18.4949L32.6675 20.4697C33.9716 20.9719 33.9716 22.8169 32.6676 23.3192L27.5398 25.294L25.565 30.4217C25.0627 31.7258 23.2177 31.7258 22.7155 30.4217L20.7407 25.294L15.6129 23.3192C14.3089 22.8169 14.3088 20.9719 15.6129 20.4697L20.7407 18.4949L22.7155 13.3671Z" fill-rule="evenodd" fill="#7A869A"></path></svg>