<svg xmlns:xlink="http://www.w3.org/1999/xlink" xmlns="http://www.w3.org/2000/svg" aria-hidden="true" width="21" height="36" viewBox="0 0 21 36"><path d="M5.22238 18.0599L19.3476 32.0019C20.0193 32.6649 20.0193 33.7398 19.3476 34.4028C18.6759 35.0658 17.5869 35.0658 16.9152 34.4028L1.71239 19.3973C1.34119 19.0309 1.17513 18.5387 1.2142 18.0597C1.17524 17.5809 1.34132 17.0889 1.71242 16.7226L16.9152 1.71697C17.5869 1.05398 18.676 1.05398 19.3477 1.71697C20.0194 2.37996 20.0194 3.45488 19.3477 4.11787L5.22238 18.0599Z" fill="#172B4D"></path><path d="M5.22238 18.0599L4.5199 17.3482L3.79884 18.0599L4.5199 18.7717L5.22238 18.0599ZM19.3476 32.0019L18.6452 32.7137L19.3476 32.0019ZM19.3476 34.4028L20.0501 35.1145L20.0501 35.1145L19.3476 34.4028ZM16.9152 34.4028L16.2127 35.1145L16.9152 34.4028ZM1.71239 19.3973L2.41487 18.6856L2.41487 18.6856L1.71239 19.3973ZM1.2142 18.0597L2.21089 18.1411L2.21751 18.0599L2.21091 17.9786L1.2142 18.0597ZM1.71242 16.7226L1.00995 16.0109L1.00995 16.0109L1.71242 16.7226ZM16.9152 1.71697L16.2127 1.00526V1.00526L16.9152 1.71697ZM19.3477 1.71697L20.0501 1.00526L19.3477 1.71697ZM19.3477 4.11787L20.0501 4.82957L19.3477 4.11787ZM4.5199 18.7717L18.6452 32.7137L20.0501 31.2902L5.92485 17.3482L4.5199 18.7717ZM18.6452 32.7137C18.9202 32.9851 18.9202 33.4197 18.6452 33.6911L20.0501 35.1145C21.1185 34.06 21.1185 32.3448 20.0501 31.2902L18.6452 32.7137ZM18.6452 33.6911C18.3629 33.9697 17.8999 33.9697 17.6177 33.6911L16.2127 35.1145C17.2739 36.1619 18.989 36.1619 20.0501 35.1145L18.6452 33.6911ZM17.6177 33.6911L2.41487 18.6856L1.00992 20.109L16.2127 35.1145L17.6177 33.6911ZM2.41487 18.6856C2.2615 18.5342 2.19502 18.3355 2.21089 18.1411L0.217512 17.9784C0.155228 18.7419 0.420878 19.5276 1.00992 20.109L2.41487 18.6856ZM2.21091 17.9786C2.19509 17.7842 2.26157 17.5856 2.4149 17.4343L1.00995 16.0109C0.42106 16.5921 0.155394 17.3776 0.217494 18.1408L2.21091 17.9786ZM2.4149 17.4343L17.6177 2.42868L16.2127 1.00526L1.00995 16.0109L2.4149 17.4343ZM17.6177 2.42868C17.9 2.15008 18.3629 2.15008 18.6452 2.42868L20.0501 1.00526C18.989 -0.0421169 17.2739 -0.0421197 16.2127 1.00526L17.6177 2.42868ZM18.6452 2.42868C18.9202 2.70011 18.9202 3.13472 18.6452 3.40616L20.0501 4.82957C21.1185 3.77503 21.1185 2.0598 20.0501 1.00526L18.6452 2.42868ZM18.6452 3.40616L4.5199 17.3482L5.92486 18.7717L20.0501 4.82957L18.6452 3.40616Z" fill="#172B4D"></path></svg>