<svg xmlns:xlink="http://www.w3.org/1999/xlink" xmlns="http://www.w3.org/2000/svg" fill="currentColor" height="65" aria-hidden="true" viewBox="0 0 65 65" width="65"><mask height="63" id="mask0_2327:15250" maskUnits="userSpaceOnUse" width="64" x="0" y="0" fill="#0052CC"><rect fill="#7A869A" height="62.1286" rx="31.0643" transform="rotate(-180 63.0195 62.6914)" width="62.1286" x="63.0195" y="62.6914"></rect></mask><g mask="url(#mask0_2327:15250)" fill="#0052CC"><path clip-rule="evenodd" d="M59.749 80.9474C86.6874 80.9474 108.525 59.1094 108.525 32.1709C108.525 5.23248 86.6874 -16.6055 59.749 -16.6055C49.3005 -16.6055 39.6193 -13.3202 31.6821 -7.72625C23.7449 -13.3202 14.0637 -16.6055 3.6152 -16.6055C-23.3233 -16.6055 -45.1612 5.23248 -45.1612 32.1709C-45.1612 59.1094 -23.3233 80.9474 3.6152 80.9474C14.0637 80.9474 23.7449 77.6621 31.6821 72.0681C39.6193 77.6621 49.3005 80.9474 59.749 80.9474ZM59.7491 -11.7009C50.8809 -11.7009 42.6272 -9.06967 35.7263 -4.54529C42.5722 1.44689 47.7276 9.3229 50.3833 18.2738L67.3788 18.2738C68.7332 18.2738 69.8312 19.3718 69.8312 20.7262C69.8312 22.042 68.7951 23.1157 67.4942 23.176L67.3788 23.1787H51.5644C51.7767 24.3175 51.9494 25.4702 52.081 26.6354C50.7683 27.7842 49.9392 29.472 49.9392 31.3535C49.9392 33.3042 50.8304 35.0468 52.2279 36.1963C52.1211 37.5039 51.9627 38.7969 51.7548 40.0732H67.3788C68.7332 40.0732 69.8312 41.1712 69.8312 42.5257C69.8312 43.8414 68.7951 44.9152 67.4942 44.9755L67.3788 44.9781H50.6929C48.1414 54.3794 42.849 62.6526 35.7268 68.8868C42.6276 73.411 50.8811 76.0421 59.7491 76.0421C83.9786 76.0421 103.621 56.4002 103.621 32.1706C103.621 7.94102 83.9786 -11.7009 59.7491 -11.7009ZM3.61544 -11.7009C12.4836 -11.7009 20.7371 -9.06972 27.638 -4.54541C20.792 1.44678 15.6366 9.32284 12.9809 18.2738L-1.28968 18.2738L-1.40513 18.2764C-2.70597 18.3367 -3.74213 19.4105 -3.74213 20.7262C-3.74213 22.0807 -2.64413 23.1787 -1.28968 23.1787H11.7997C11.2565 26.0932 10.9725 29.0989 10.9725 32.1709C10.9725 34.8615 11.1904 37.5011 11.6094 40.0732H-1.28968L-1.40513 40.0759C-2.70597 40.1362 -3.74213 41.2099 -3.74213 42.5257C-3.74213 43.8801 -2.64413 44.9781 -1.28968 44.9781L12.6713 44.9781C15.2228 54.3794 20.5152 62.6527 27.6376 68.8869C20.7367 73.411 12.4834 76.0421 3.61543 76.0421C-20.6141 76.0421 -40.2561 56.4002 -40.2561 32.1706C-40.2561 7.94102 -20.6141 -11.7009 3.61544 -11.7009ZM32.961 64.7832C32.542 65.1605 32.1157 65.5298 31.6823 65.891C31.2491 65.5301 30.8231 65.161 30.4043 64.7839C30.7764 65.0115 31.2139 65.1427 31.6821 65.1427C32.1507 65.1427 32.5886 65.0112 32.961 64.7832ZM45.588 44.9781C43.3298 52.388 39.1632 58.9659 33.6609 64.1393C33.9586 63.7333 34.1345 63.2323 34.1345 62.6902V44.9781H45.588ZM47.487 32.1706C47.487 34.8686 47.2434 37.5098 46.7771 40.0732H34.1345V24.6599C32.7997 23.5106 31.9546 21.8084 31.9546 19.9087C31.9546 18.0091 32.7997 16.3069 34.1345 15.1576V0.653927C39.1351 5.49725 42.9866 11.52 45.2404 18.2738H44.2739C44.4144 18.795 44.4893 19.3431 44.4893 19.9087C44.4893 21.107 44.1531 22.2267 43.5697 23.1787H46.5646C47.1692 26.0811 47.487 29.0887 47.487 32.1706ZM18.3296 46.6685C20.6816 53.3885 24.6227 59.3619 29.7025 64.1382C29.4264 63.7614 29.2553 63.3029 29.2323 62.8057L29.2296 62.6902V44.9781H26.3003C27.1121 43.9215 27.5947 42.5987 27.5947 41.1633C27.5947 40.7915 27.5624 40.4272 27.5003 40.0732H29.2296V23.1787H16.7999C16.1953 26.0811 15.8775 29.0887 15.8775 32.1706C15.8775 33.9925 15.9886 35.7885 16.2043 37.5521C15.4835 38.5729 15.06 39.8186 15.06 41.1633C15.06 43.5387 16.3816 45.6055 18.3296 46.6685ZM29.2296 0.654284C24.2292 5.49754 20.3778 11.5202 18.1241 18.2738H29.2296V0.654284Z" fill-rule="evenodd" opacity="0.5" fill="#7A869A"></path></g><path clip-rule="evenodd" d="M29.2304 0.679388L29.2023 0.681836C24.2156 5.52034 20.3745 11.533 18.125 18.2737H29.2304V0.679388ZM27.9926 62.4398C28.4028 62.492 28.8154 62.5362 29.2304 62.5723L29.2304 44.9781H26.3009C25.1552 46.4693 23.3538 47.4305 21.328 47.4305C20.2421 47.4305 19.2207 47.1544 18.3302 46.6685C20.4111 52.6139 23.7359 57.9751 27.9926 62.4398ZM16.205 37.5519C15.9893 35.7885 15.8783 33.9927 15.8783 32.171C15.8783 29.089 16.1961 26.0812 16.8007 23.1786H29.2304V40.0732H27.5009C26.985 37.1314 24.4176 34.8958 21.328 34.8958C19.2113 34.8958 17.3397 35.9451 16.205 37.5519ZM34.1352 62.6148C34.5271 62.5877 34.9169 62.5532 35.3046 62.5117C39.995 57.6143 43.5613 51.6316 45.5889 44.9781L34.1352 44.9781L34.1352 62.6148ZM60.0116 44.9781C56.6309 52.0689 50.6413 57.6767 43.2845 60.5595C46.6182 55.9094 49.1545 50.649 50.6936 44.9781H60.0116ZM63.0195 31.6258C63.0195 34.5539 62.6144 37.3874 61.8572 40.0732H51.7555C51.9634 38.7969 52.1218 37.5039 52.2286 36.1963C53.3108 37.0864 54.6966 37.6208 56.2072 37.6208C59.6686 37.6208 62.4746 34.8148 62.4746 31.3534C62.4746 27.8921 59.6686 25.0861 56.2072 25.0861C54.6273 25.0861 53.184 25.6706 52.0817 26.6353C51.9501 25.4701 51.7774 24.3174 51.5652 23.1786L61.8572 23.1786C62.6144 25.8644 63.0195 28.6978 63.0195 31.6258ZM50.384 18.2737L60.0116 18.2737C56.4605 10.8251 50.0304 5.01304 42.1608 2.27685C45.825 6.99458 48.6422 12.403 50.384 18.2737ZM3.89888 44.9781C7.16126 51.8209 12.8533 57.2825 19.859 60.247C16.6347 55.6743 14.1767 50.5223 12.672 44.9781L3.89888 44.9781ZM11.6101 40.0732L2.05326 40.0732C1.29602 37.3874 0.890907 34.5539 0.890907 31.6258C0.890907 28.6978 1.29601 25.8644 2.05322 23.1786H11.8005C11.2573 26.0932 10.9733 29.0989 10.9733 32.1709C10.9733 34.8615 11.1911 37.5011 11.6101 40.0732ZM20.9936 2.55082C13.4687 5.38921 7.33556 11.0651 3.8988 18.2737H12.9816C14.6898 12.5163 17.4323 7.20354 20.9936 2.55082ZM46.7779 40.0732C47.2442 37.5099 47.4877 34.8689 47.4877 32.171C47.4877 29.089 47.1699 26.0812 46.5653 23.1786H43.5703C42.4686 24.9765 40.4857 26.176 38.2226 26.176C36.6609 26.176 35.2326 25.6048 34.1352 24.66L34.1352 40.0732L46.7779 40.0732ZM38.2226 13.6413C36.6609 13.6413 35.2326 14.2125 34.1352 15.1574V0.654297C39.1358 5.49752 42.9872 11.5202 45.241 18.2737H44.2745C43.5554 15.6052 41.1183 13.6413 38.2226 13.6413Z" fill-rule="evenodd" fill="#7A869A"></path></svg>