<svg xmlns:xlink="http://www.w3.org/1999/xlink" xmlns="http://www.w3.org/2000/svg" height="16" viewBox="0 0 16 16" width="16"><path d="m7.9365485 4.00948853c2.1378796 0 3.8773322 1.74591892 3.8773322 3.89174604 0 2.14582713-1.7394526 3.89174603-3.8773322 3.89174603-2.13787961 0-3.87703593-1.7459189-3.87703593-3.89174603 0-2.14582712 1.73915632-3.89174604 3.87703593-3.89174604zm0 1.39893537c-1.36946341 0-2.48357803 1.11825631-2.48357803 2.49281067 0 1.37455435 1.11411462 2.49281063 2.48357803 2.49281063 1.36975965 0 2.483578-1.11825628 2.483578-2.49281063 0-1.37455436-1.11381835-2.49281067-2.483578-2.49281067zm4.1036506-2.58676679c.5095127 0 .9227511.41477468.9227511.92618144 0 .5117041-.4132384.92647878-.9227511.92647878-.5098089 0-.9230474-.41477468-.9230474-.92647878 0-.51140676.4132385-.92618144.9230474-.92618144zm-7.31121058-1.33500953c-1.79099628 0-3.24784704 1.46226656-3.24784704 3.25992082v6.3093323c0 1.7976543 1.45685076 3.2599209 3.24784704 3.2599209h6.28566818c1.7909963 0 3.2481433-1.4622666 3.2481433-3.2599209v-6.3093323c0-1.79765426-1.457147-3.25992082-3.2481433-3.25992082zm6.28566818 14.31582152h-6.28566818c-2.60740146 0-4.72898852-2.1291766-4.72898852-4.7465684v-6.3093323c0-2.61739173 2.12158706-4.7465684 4.72898852-4.7465684h6.28566818c2.6076977 0 4.7292848 2.12917667 4.7292848 4.7465684v6.3093323c0 2.6173918-2.1215871 4.7465684-4.7292848 4.7465684z" fill="#FFFFFF"></path></svg>