<svg xmlns:xlink="http://www.w3.org/1999/xlink" xmlns="http://www.w3.org/2000/svg" fill="currentColor" height="65" aria-hidden="true" viewBox="0 0 65 65" width="65"><path clip-rule="evenodd" d="M55.8054 34.7189C57.1531 34.6565 58.2266 33.5441 58.2266 32.1809C58.2266 30.7776 57.089 29.6401 55.6857 29.6401L35.0769 29.6401V18.3476L35.0752 18.1664C34.9786 13.1047 30.8453 9.03125 25.7606 9.03125L9.38642 9.03125L9.26682 9.03402C7.91909 9.09647 6.84561 10.2089 6.84561 11.5721C6.84561 12.9753 7.98317 14.1129 9.38642 14.1129L25.7606 14.1129L25.8976 14.1151C28.1729 14.1874 29.9953 16.0547 29.9953 18.3476L29.9953 46.0142L29.9931 46.1513C29.9207 48.4266 28.0535 50.2489 25.7606 50.2489H9.38642L9.26682 50.2517C7.91909 50.3142 6.84561 51.4266 6.84561 52.7897C6.84561 54.193 7.98317 55.3306 9.38642 55.3306H25.7606L25.9418 55.3288C31.0034 55.2323 35.0769 51.099 35.0769 46.0142L35.0769 34.7217H55.6857L55.8054 34.7189Z" fill-rule="evenodd" opacity="0.5" fill="#7A869A"></path><path d="M11.9282 0.5625C18.0089 0.5625 22.9384 5.49194 22.9384 11.5727C22.9384 17.6535 18.0089 22.5829 11.9282 22.5829C5.8474 22.5829 0.917969 17.6535 0.917969 11.5727C0.917969 5.49194 5.8474 0.5625 11.9282 0.5625Z" fill="#7A869A"></path><path d="M11.9282 41.7793C18.0089 41.7793 22.9384 46.7087 22.9384 52.7895C22.9384 58.8703 18.0089 63.7997 11.9282 63.7997C5.8474 63.7997 0.917969 58.8703 0.917969 52.7895C0.917969 46.7087 5.8474 41.7793 11.9282 41.7793Z" fill="#7A869A"></path><path d="M53.1469 21.1719C59.2277 21.1719 64.1571 26.1013 64.1571 32.1821C64.1571 38.2628 59.2277 43.1923 53.1469 43.1923C47.0662 43.1923 42.1367 38.2628 42.1367 32.1821C42.1367 26.1013 47.0662 21.1719 53.1469 21.1719Z" fill="#7A869A"></path></svg>