<svg xmlns:xlink="http://www.w3.org/1999/xlink" xmlns="http://www.w3.org/2000/svg" fill="currentColor" height="42" aria-hidden="true" viewBox="0 0 65 42" width="65"><path clip-rule="evenodd" d="M38.9929 15.1289C40.2694 15.4199 41.2217 16.557 41.2217 17.9155C41.2217 19.4943 39.9355 20.7742 38.3489 20.7742C36.7623 20.7742 35.4762 19.4943 35.4762 17.9155C35.4762 16.557 36.4284 15.4199 37.7049 15.1289H27.0953C28.571 15.2488 29.731 16.4786 29.731 17.978C29.731 19.5568 28.4449 20.8367 26.8583 20.8367C25.2717 20.8367 23.9855 19.5568 23.9855 17.978C23.9855 16.4786 25.1456 15.2488 26.6213 15.1289H10.2425C7.704 15.1289 5.34277 17.1767 5.34277 19.7028V39.4512H60.1911V19.7028C60.1911 17.1767 58.1332 15.1289 55.5947 15.1289H38.9929Z" fill-rule="evenodd" opacity="0.5" fill="#4C9AFF"></path><path clip-rule="evenodd" d="M16.7074 37.1377V4.76532C16.7074 2.23922 18.7653 0.191406 21.3038 0.191406H43.9028C46.4413 0.191406 48.4992 2.23922 48.4992 4.76532V37.1377H62.6716C63.7386 37.1377 64.6035 38.0027 64.6035 39.0696C64.6035 40.1366 63.7386 41.0015 62.6716 41.0015H2.53539C1.46845 41.0015 0.603516 40.1366 0.603516 39.0696C0.603516 38.0027 1.46845 37.1377 2.53539 37.1377H16.7074ZM28.9645 37.1377V31.1644C28.9645 29.215 30.5526 27.6348 32.5115 27.6348C34.4705 27.6348 36.0585 29.215 36.0585 31.1644V37.1377H28.9645ZM29.7306 17.9787C29.7306 16.3999 28.4444 15.12 26.8579 15.12C25.2713 15.12 23.9851 16.3999 23.9851 17.9787C23.9851 19.5575 25.2713 20.8374 26.8579 20.8374C28.4444 20.8374 29.7306 19.5575 29.7306 17.9787ZM38.3488 15.0575C39.9354 15.0575 41.2216 16.3374 41.2216 17.9162C41.2216 19.495 39.9354 20.7749 38.3488 20.7749C36.7622 20.7749 35.4761 19.495 35.4761 17.9162C35.4761 16.3374 36.7622 15.0575 38.3488 15.0575ZM29.7306 8.76872C29.7306 7.18991 28.4444 5.91002 26.8579 5.91002C25.2713 5.91002 23.9851 7.18991 23.9851 8.76872C23.9851 10.3475 25.2713 11.6274 26.8579 11.6274C28.4444 11.6274 29.7306 10.3475 29.7306 8.76872ZM38.3488 5.91002C39.9354 5.91002 41.2216 7.18991 41.2216 8.76872C41.2216 10.3475 39.9354 11.6274 38.3488 11.6274C36.7622 11.6274 35.4761 10.3475 35.4761 8.76872C35.4761 7.18991 36.7622 5.91002 38.3488 5.91002Z" fill-rule="evenodd" fill="#4C9AFF"></path></svg>